<?xml version="1.0" encoding="UTF-8" standalone="no"?>
<!DOCTYPE svg PUBLIC "-//W3C//DTD SVG 1.1//EN" "http://www.w3.org/Graphics/SVG/1.1/DTD/svg11.dtd">
<svg width="100%" height="100%" viewBox="0 0 287 59" version="1.1" xmlns="http://www.w3.org/2000/svg" xmlns:xlink="http://www.w3.org/1999/xlink" xml:space="preserve" xmlns:serif="http://www.serif.com/" style="fill-rule:evenodd;clip-rule:evenodd;stroke-linejoin:round;stroke-miterlimit:2;">
    <g transform="matrix(1,0,0,1,-112.82,-354.753)">
        <g id="logo" transform="matrix(1,0,0,1,0,292.208)">
            <path d="M241.745,121.039C238.723,121.039 235.982,120.284 233.52,118.773C231.058,117.262 229.086,115.234 227.603,112.688C226.121,110.143 225.379,107.303 225.379,104.17L225.379,79.246C225.379,76.225 226.121,73.441 227.603,70.896C229.086,68.35 231.072,66.322 233.562,64.811C236.052,63.301 238.779,62.545 241.745,62.545C244.822,62.545 247.605,63.287 250.095,64.769C252.585,66.252 254.557,68.252 256.012,70.77C257.466,73.288 258.194,76.113 258.194,79.246L258.194,83.428C258.194,83.651 258.054,83.763 257.774,83.763L248.375,83.763C248.151,83.763 248.039,83.651 248.039,83.428L248.039,79.918C248.039,77.792 247.437,76.029 246.235,74.63C245.032,73.232 243.535,72.532 241.745,72.532C240.122,72.532 238.681,73.204 237.422,74.547C236.164,75.889 235.534,77.456 235.534,79.246L235.534,104.17C235.534,106.016 236.15,107.597 237.38,108.912C238.611,110.227 240.066,110.884 241.745,110.884C243.535,110.884 245.032,110.241 246.235,108.954C247.437,107.667 248.039,106.072 248.039,104.17L248.039,101.631L242.164,101.631C241.884,101.631 241.745,101.491 241.745,101.211L241.745,91.811C241.745,91.532 241.884,91.392 242.164,91.392L257.858,91.392C258.082,91.392 258.194,91.532 258.194,91.811L258.194,104.17C258.194,107.303 257.452,110.143 255.97,112.688C254.487,115.234 252.515,117.262 250.053,118.773C247.591,120.284 244.822,121.039 241.745,121.039ZM342.914,121.039C339.78,121.039 336.969,120.297 334.479,118.815C331.989,117.332 330.031,115.29 328.604,112.688C327.178,110.087 326.464,107.163 326.464,103.918L326.464,100.875C326.464,100.651 326.576,100.54 326.8,100.54L336.284,100.54C336.507,100.54 336.619,100.679 336.619,100.959L336.619,103.918C336.619,105.988 337.207,107.667 338.382,108.954C339.557,110.241 341.067,110.884 342.914,110.884C344.592,110.884 346.047,110.185 347.278,108.786C348.509,107.387 349.124,105.765 349.124,103.918L349.124,63.025C349.124,62.801 349.236,62.69 349.46,62.69L358.859,62.69C359.083,62.69 359.195,62.829 359.195,63.109L359.279,103.918C359.279,106.995 358.538,109.835 357.055,112.437C355.572,115.038 353.6,117.122 351.138,118.689C348.676,120.256 345.935,121.039 342.914,121.039ZM123.159,121.017C122.935,121.017 122.795,120.877 122.739,120.598L112.836,62.941C112.78,62.718 112.864,62.606 113.088,62.606L122.488,62.606C122.711,62.606 122.851,62.718 122.907,62.941L128.278,100.875L133.818,62.941C133.873,62.718 134.041,62.606 134.321,62.606L141.874,62.606C142.098,62.606 142.238,62.718 142.294,62.941L147.749,100.875L153.204,62.941C153.26,62.718 153.4,62.606 153.624,62.606L162.939,62.606C163.219,62.606 163.331,62.718 163.275,62.941L153.288,120.598C153.232,120.709 153.148,120.807 153.036,120.891C152.924,120.975 152.868,121.017 152.868,121.017L142.714,121.017C142.546,121.017 142.406,120.877 142.294,120.598L138.014,90.469L133.734,120.598C133.678,120.877 133.538,121.017 133.314,121.017L123.159,121.017ZM262.39,121.017C262.166,121.017 262.054,120.877 262.054,120.598L262.138,62.941C262.138,62.718 262.25,62.606 262.474,62.606L289.414,62.606C289.638,62.606 289.749,62.746 289.749,63.025L289.749,72.425C289.749,72.649 289.638,72.761 289.414,72.761L272.209,72.761L272.209,91.434L289.414,91.434C289.638,91.434 289.749,91.546 289.749,91.769L289.833,101.253C289.833,101.477 289.721,101.589 289.498,101.589L272.209,101.589L272.209,110.694L289.498,110.694C289.721,110.694 289.833,110.834 289.833,111.114L289.833,120.681C289.833,120.905 289.721,121.017 289.498,121.017L262.39,121.017ZM196.677,121.017C196.453,121.017 196.341,120.877 196.341,120.598L196.425,63.025C196.425,62.746 196.565,62.606 196.845,62.606L206.161,62.606C206.44,62.606 206.58,62.746 206.58,63.025L206.496,110.694L223.785,110.694C224.064,110.694 224.204,110.834 224.204,111.114L224.204,120.598C224.204,120.877 224.064,121.017 223.785,121.017L196.677,121.017ZM295.54,121.017C295.316,121.017 295.205,120.877 295.205,120.598L295.288,63.025C295.288,62.746 295.428,62.606 295.708,62.606L305.024,62.606C305.303,62.606 305.443,62.746 305.443,63.025L305.359,110.694L322.648,110.694C322.928,110.694 323.068,110.834 323.068,111.114L323.068,120.598C323.068,120.877 322.928,121.017 322.648,121.017L295.54,121.017ZM159.75,120.598L170.157,62.941C170.213,62.718 170.353,62.606 170.576,62.606L182.746,62.606C182.969,62.606 183.109,62.718 183.165,62.941L193.152,120.598C193.208,120.877 193.096,121.017 192.817,121.017L183.501,121.017C183.277,121.017 183.137,120.877 183.081,120.598L182.158,114.471L170.744,114.471L169.821,120.598C169.765,120.877 169.625,121.017 169.402,121.017L160.086,121.017C159.862,121.017 159.75,120.877 159.75,120.598ZM363.895,121.017C363.671,121.017 363.559,120.877 363.559,120.598L363.727,63.025C363.727,62.746 363.839,62.606 364.063,62.606L373.462,62.606C373.686,62.606 373.798,62.746 373.798,63.025L373.798,82.915L386.974,62.941C387.142,62.718 387.338,62.606 387.562,62.606L397.213,62.606C397.437,62.606 397.493,62.718 397.381,62.941L382.862,86.105L399.143,120.681C399.255,120.905 399.115,121.017 398.724,121.017L388.485,121.017C388.205,121.017 388.037,120.905 387.981,120.681L376.651,96.008L373.714,100.624L373.714,120.598C373.714,120.877 373.602,121.017 373.378,121.017L363.895,121.017ZM172.423,105.491L180.48,105.491L177.039,81.908L176.535,78.803L176.199,81.908L172.423,105.491ZM326.884,91.811C326.604,91.811 326.464,91.693 326.464,91.457L326.548,62.973C326.548,62.784 326.66,62.69 326.884,62.69L336.284,62.69C336.507,62.69 336.619,62.784 336.619,62.973L336.703,91.457C336.703,91.693 336.591,91.811 336.368,91.811L326.884,91.811Z" style="fill:white;fill-rule:nonzero;"/>
        </g>
    </g>
</svg>
